<?xml version="1.0" encoding="utf-8" standalone="no"?>
<!DOCTYPE svg PUBLIC "-//W3C//DTD SVG 1.1//EN"
  "http://www.w3.org/Graphics/SVG/1.1/DTD/svg11.dtd">
<!-- Created with matplotlib (http://matplotlib.org/) -->
<svg height="345.6pt" version="1.1" viewBox="0 0 460.8 345.6" width="460.8pt" xmlns="http://www.w3.org/2000/svg" xmlns:xlink="http://www.w3.org/1999/xlink">
 <defs>
  <style type="text/css">
*{stroke-linecap:butt;stroke-linejoin:round;}
  </style>
 </defs>
 <g id="figure_1">
  <g id="patch_1">
   <path d="M 0 345.6 
L 460.8 345.6 
L 460.8 0 
L 0 0 
z
" style="fill:#ffffff;"/>
  </g>
  <g id="patch_2">
   <path d="M 57.6 307.584 
L 414.72 307.584 
L 414.72 41.472 
L 57.6 41.472 
z
" style="fill:#ffffff;"/>
  </g>
  <g id="pane3d_1">
   <g id="patch_3">
    <path d="M 103.08744 229.229288 
L 240.710583 167.70448 
L 240.693858 50.796187 
L 94.200676 109.154347 
" style="fill:#f2f2f2;opacity:0.5;stroke:#f2f2f2;stroke-linejoin:miter;"/>
   </g>
  </g>
  <g id="pane3d_2">
   <g id="patch_4">
    <path d="M 240.710583 167.70448 
L 378.851161 228.955251 
L 387.733496 108.893511 
L 240.693858 50.796187 
" style="fill:#e6e6e6;opacity:0.5;stroke:#e6e6e6;stroke-linejoin:miter;"/>
   </g>
  </g>
  <g id="pane3d_3">
   <g id="patch_5">
    <path d="M 103.08744 229.229288 
L 241.29471 297.926176 
L 378.851161 228.955251 
L 240.710583 167.70448 
" style="fill:#ececec;opacity:0.5;stroke:#ececec;stroke-linejoin:miter;"/>
   </g>
  </g>
  <g id="axis3d_1">
   <g id="line2d_1">
    <path d="M 103.08744 229.229288 
L 241.29471 297.926176 
" style="fill:none;stroke:#000000;stroke-linecap:square;stroke-width:0.8;"/>
   </g>
   <g id="text_1">
    <!-- t axis -->
    <defs>
     <path d="M 18.3125 70.21875 
L 18.3125 54.6875 
L 36.8125 54.6875 
L 36.8125 47.703125 
L 18.3125 47.703125 
L 18.3125 18.015625 
Q 18.3125 11.328125 20.140625 9.421875 
Q 21.96875 7.515625 27.59375 7.515625 
L 36.8125 7.515625 
L 36.8125 0 
L 27.59375 0 
Q 17.1875 0 13.234375 3.875 
Q 9.28125 7.765625 9.28125 18.015625 
L 9.28125 47.703125 
L 2.6875 47.703125 
L 2.6875 54.6875 
L 9.28125 54.6875 
L 9.28125 70.21875 
z
" id="DejaVuSans-74"/>
     <path id="DejaVuSans-20"/>
     <path d="M 34.28125 27.484375 
Q 23.390625 27.484375 19.1875 25 
Q 14.984375 22.515625 14.984375 16.5 
Q 14.984375 11.71875 18.140625 8.90625 
Q 21.296875 6.109375 26.703125 6.109375 
Q 34.1875 6.109375 38.703125 11.40625 
Q 43.21875 16.703125 43.21875 25.484375 
L 43.21875 27.484375 
z
M 52.203125 31.203125 
L 52.203125 0 
L 43.21875 0 
L 43.21875 8.296875 
Q 40.140625 3.328125 35.546875 0.953125 
Q 30.953125 -1.421875 24.3125 -1.421875 
Q 15.921875 -1.421875 10.953125 3.296875 
Q 6 8.015625 6 15.921875 
Q 6 25.140625 12.171875 29.828125 
Q 18.359375 34.515625 30.609375 34.515625 
L 43.21875 34.515625 
L 43.21875 35.40625 
Q 43.21875 41.609375 39.140625 45 
Q 35.0625 48.390625 27.6875 48.390625 
Q 23 48.390625 18.546875 47.265625 
Q 14.109375 46.140625 10.015625 43.890625 
L 10.015625 52.203125 
Q 14.9375 54.109375 19.578125 55.046875 
Q 24.21875 56 28.609375 56 
Q 40.484375 56 46.34375 49.84375 
Q 52.203125 43.703125 52.203125 31.203125 
z
" id="DejaVuSans-61"/>
     <path d="M 54.890625 54.6875 
L 35.109375 28.078125 
L 55.90625 0 
L 45.3125 0 
L 29.390625 21.484375 
L 13.484375 0 
L 2.875 0 
L 24.125 28.609375 
L 4.6875 54.6875 
L 15.28125 54.6875 
L 29.78125 35.203125 
L 44.28125 54.6875 
z
" id="DejaVuSans-78"/>
     <path d="M 9.421875 54.6875 
L 18.40625 54.6875 
L 18.40625 0 
L 9.421875 0 
z
M 9.421875 75.984375 
L 18.40625 75.984375 
L 18.40625 64.59375 
L 9.421875 64.59375 
z
" id="DejaVuSans-69"/>
     <path d="M 44.28125 53.078125 
L 44.28125 44.578125 
Q 40.484375 46.53125 36.375 47.5 
Q 32.28125 48.484375 27.875 48.484375 
Q 21.1875 48.484375 17.84375 46.4375 
Q 14.5 44.390625 14.5 40.28125 
Q 14.5 37.15625 16.890625 35.375 
Q 19.28125 33.59375 26.515625 31.984375 
L 29.59375 31.296875 
Q 39.15625 29.25 43.1875 25.515625 
Q 47.21875 21.78125 47.21875 15.09375 
Q 47.21875 7.46875 41.1875 3.015625 
Q 35.15625 -1.421875 24.609375 -1.421875 
Q 20.21875 -1.421875 15.453125 -0.5625 
Q 10.6875 0.296875 5.421875 2 
L 5.421875 11.28125 
Q 10.40625 8.6875 15.234375 7.390625 
Q 20.0625 6.109375 24.8125 6.109375 
Q 31.15625 6.109375 34.5625 8.28125 
Q 37.984375 10.453125 37.984375 14.40625 
Q 37.984375 18.0625 35.515625 20.015625 
Q 33.0625 21.96875 24.703125 23.78125 
L 21.578125 24.515625 
Q 13.234375 26.265625 9.515625 29.90625 
Q 5.8125 33.546875 5.8125 39.890625 
Q 5.8125 47.609375 11.28125 51.796875 
Q 16.75 56 26.8125 56 
Q 31.78125 56 36.171875 55.265625 
Q 40.578125 54.546875 44.28125 53.078125 
z
" id="DejaVuSans-73"/>
    </defs>
    <g transform="translate(135.01323 287.170665)rotate(-333.570006)scale(0.1 -0.1)">
     <use xlink:href="#DejaVuSans-74"/>
     <use x="39.208984" xlink:href="#DejaVuSans-20"/>
     <use x="70.996094" xlink:href="#DejaVuSans-61"/>
     <use x="132.275391" xlink:href="#DejaVuSans-78"/>
     <use x="191.455078" xlink:href="#DejaVuSans-69"/>
     <use x="219.238281" xlink:href="#DejaVuSans-73"/>
    </g>
   </g>
   <g id="Line3DCollection_1">
    <path d="M 111.410772 233.366458 
L 249.05554 171.404588 
L 249.547472 54.294369 
" style="fill:none;stroke:#b0b0b0;stroke-width:0.8;"/>
    <path d="M 134.578468 244.882123 
L 272.26608 181.696013 
L 274.192292 64.031866 
" style="fill:none;stroke:#b0b0b0;stroke-width:0.8;"/>
    <path d="M 158.219314 256.63297 
L 295.924366 192.185967 
L 299.342102 73.968892 
" style="fill:none;stroke:#b0b0b0;stroke-width:0.8;"/>
    <path d="M 182.347954 268.626279 
L 320.043481 202.88025 
L 325.012585 84.111642 
" style="fill:none;stroke:#b0b0b0;stroke-width:0.8;"/>
    <path d="M 206.979643 280.869633 
L 344.637021 213.78489 
L 351.220077 94.466572 
" style="fill:none;stroke:#b0b0b0;stroke-width:0.8;"/>
    <path d="M 232.130279 293.370932 
L 369.719122 224.906156 
L 377.981609 105.04041 
" style="fill:none;stroke:#b0b0b0;stroke-width:0.8;"/>
   </g>
   <g id="xtick_1">
    <g id="line2d_2">
     <path d="M 112.57473 232.842493 
L 109.07964 234.415836 
" style="fill:none;stroke:#000000;stroke-linecap:square;stroke-width:0.8;"/>
    </g>
    <g id="text_2">
     <!-- 0 -->
     <defs>
      <path d="M 31.78125 66.40625 
Q 24.171875 66.40625 20.328125 58.90625 
Q 16.5 51.421875 16.5 36.375 
Q 16.5 21.390625 20.328125 13.890625 
Q 24.171875 6.390625 31.78125 6.390625 
Q 39.453125 6.390625 43.28125 13.890625 
Q 47.125 21.390625 47.125 36.375 
Q 47.125 51.421875 43.28125 58.90625 
Q 39.453125 66.40625 31.78125 66.40625 
z
M 31.78125 74.21875 
Q 44.046875 74.21875 50.515625 64.515625 
Q 56.984375 54.828125 56.984375 36.375 
Q 56.984375 17.96875 50.515625 8.265625 
Q 44.046875 -1.421875 31.78125 -1.421875 
Q 19.53125 -1.421875 13.0625 8.265625 
Q 6.59375 17.96875 6.59375 36.375 
Q 6.59375 54.828125 13.0625 64.515625 
Q 19.53125 74.21875 31.78125 74.21875 
z
" id="DejaVuSans-30"/>
     </defs>
     <g transform="translate(98.475664 253.609209)scale(0.1 -0.1)">
      <use xlink:href="#DejaVuSans-30"/>
     </g>
    </g>
   </g>
   <g id="xtick_2">
    <g id="line2d_3">
     <path d="M 135.743423 244.347514 
L 132.245306 245.952832 
" style="fill:none;stroke:#000000;stroke-linecap:square;stroke-width:0.8;"/>
    </g>
    <g id="text_3">
     <!-- 1 -->
     <defs>
      <path d="M 12.40625 8.296875 
L 28.515625 8.296875 
L 28.515625 63.921875 
L 10.984375 60.40625 
L 10.984375 69.390625 
L 28.421875 72.90625 
L 38.28125 72.90625 
L 38.28125 8.296875 
L 54.390625 8.296875 
L 54.390625 0 
L 12.40625 0 
z
" id="DejaVuSans-31"/>
     </defs>
     <g transform="translate(121.539407 265.24998)scale(0.1 -0.1)">
      <use xlink:href="#DejaVuSans-31"/>
     </g>
    </g>
   </g>
   <g id="xtick_3">
    <g id="line2d_4">
     <path d="M 159.385064 256.087391 
L 155.884526 257.725669 
" style="fill:none;stroke:#000000;stroke-linecap:square;stroke-width:0.8;"/>
    </g>
    <g id="text_4">
     <!-- 2 -->
     <defs>
      <path d="M 19.1875 8.296875 
L 53.609375 8.296875 
L 53.609375 0 
L 7.328125 0 
L 7.328125 8.296875 
Q 12.9375 14.109375 22.625 23.890625 
Q 32.328125 33.6875 34.8125 36.53125 
Q 39.546875 41.84375 41.421875 45.53125 
Q 43.3125 49.21875 43.3125 52.78125 
Q 43.3125 58.59375 39.234375 62.25 
Q 35.15625 65.921875 28.609375 65.921875 
Q 23.96875 65.921875 18.8125 64.3125 
Q 13.671875 62.703125 7.8125 59.421875 
L 7.8125 69.390625 
Q 13.765625 71.78125 18.9375 73 
Q 24.125 74.21875 28.421875 74.21875 
Q 39.75 74.21875 46.484375 68.546875 
Q 53.21875 62.890625 53.21875 53.421875 
Q 53.21875 48.921875 51.53125 44.890625 
Q 49.859375 40.875 45.40625 35.40625 
Q 44.1875 33.984375 37.640625 27.21875 
Q 31.109375 20.453125 19.1875 8.296875 
z
" id="DejaVuSans-32"/>
     </defs>
     <g transform="translate(145.074067 277.128434)scale(0.1 -0.1)">
      <use xlink:href="#DejaVuSans-32"/>
     </g>
    </g>
   </g>
   <g id="xtick_4">
    <g id="line2d_5">
     <path d="M 183.514285 268.069387 
L 180.01197 269.741651 
" style="fill:none;stroke:#000000;stroke-linecap:square;stroke-width:0.8;"/>
    </g>
    <g id="text_5">
     <!-- 3 -->
     <defs>
      <path d="M 40.578125 39.3125 
Q 47.65625 37.796875 51.625 33 
Q 55.609375 28.21875 55.609375 21.1875 
Q 55.609375 10.40625 48.1875 4.484375 
Q 40.765625 -1.421875 27.09375 -1.421875 
Q 22.515625 -1.421875 17.65625 -0.515625 
Q 12.796875 0.390625 7.625 2.203125 
L 7.625 11.71875 
Q 11.71875 9.328125 16.59375 8.109375 
Q 21.484375 6.890625 26.8125 6.890625 
Q 36.078125 6.890625 40.9375 10.546875 
Q 45.796875 14.203125 45.796875 21.1875 
Q 45.796875 27.640625 41.28125 31.265625 
Q 36.765625 34.90625 28.71875 34.90625 
L 20.21875 34.90625 
L 20.21875 43.015625 
L 29.109375 43.015625 
Q 36.375 43.015625 40.234375 45.921875 
Q 44.09375 48.828125 44.09375 54.296875 
Q 44.09375 59.90625 40.109375 62.90625 
Q 36.140625 65.921875 28.71875 65.921875 
Q 24.65625 65.921875 20.015625 65.03125 
Q 15.375 64.15625 9.8125 62.3125 
L 9.8125 71.09375 
Q 15.4375 72.65625 20.34375 73.4375 
Q 25.25 74.21875 29.59375 74.21875 
Q 40.828125 74.21875 47.359375 69.109375 
Q 53.90625 64.015625 53.90625 55.328125 
Q 53.90625 49.265625 50.4375 45.09375 
Q 46.96875 40.921875 40.578125 39.3125 
z
" id="DejaVuSans-33"/>
     </defs>
     <g transform="translate(169.094215 289.251923)scale(0.1 -0.1)">
      <use xlink:href="#DejaVuSans-33"/>
     </g>
    </g>
   </g>
   <g id="xtick_5">
    <g id="line2d_6">
     <path d="M 208.146326 280.301072 
L 204.642921 282.008391 
" style="fill:none;stroke:#000000;stroke-linecap:square;stroke-width:0.8;"/>
    </g>
    <g id="text_6">
     <!-- 4 -->
     <defs>
      <path d="M 37.796875 64.3125 
L 12.890625 25.390625 
L 37.796875 25.390625 
z
M 35.203125 72.90625 
L 47.609375 72.90625 
L 47.609375 25.390625 
L 58.015625 25.390625 
L 58.015625 17.1875 
L 47.609375 17.1875 
L 47.609375 0 
L 37.796875 0 
L 37.796875 17.1875 
L 4.890625 17.1875 
L 4.890625 26.703125 
z
" id="DejaVuSans-34"/>
     </defs>
     <g transform="translate(193.615031 301.628111)scale(0.1 -0.1)">
      <use xlink:href="#DejaVuSans-34"/>
     </g>
    </g>
   </g>
   <g id="xtick_6">
    <g id="line2d_7">
     <path d="M 233.297069 292.790332 
L 229.793306 294.533819 
" style="fill:none;stroke:#000000;stroke-linecap:square;stroke-width:0.8;"/>
    </g>
    <g id="text_7">
     <!-- 5 -->
     <defs>
      <path d="M 10.796875 72.90625 
L 49.515625 72.90625 
L 49.515625 64.59375 
L 19.828125 64.59375 
L 19.828125 46.734375 
Q 21.96875 47.46875 24.109375 47.828125 
Q 26.265625 48.1875 28.421875 48.1875 
Q 40.625 48.1875 47.75 41.5 
Q 54.890625 34.8125 54.890625 23.390625 
Q 54.890625 11.625 47.5625 5.09375 
Q 40.234375 -1.421875 26.90625 -1.421875 
Q 22.3125 -1.421875 17.546875 -0.640625 
Q 12.796875 0.140625 7.71875 1.703125 
L 7.71875 11.625 
Q 12.109375 9.234375 16.796875 8.0625 
Q 21.484375 6.890625 26.703125 6.890625 
Q 35.15625 6.890625 40.078125 11.328125 
Q 45.015625 15.765625 45.015625 23.390625 
Q 45.015625 31 40.078125 35.4375 
Q 35.15625 39.890625 26.703125 39.890625 
Q 22.75 39.890625 18.8125 39.015625 
Q 14.890625 38.140625 10.796875 36.28125 
z
" id="DejaVuSans-35"/>
     </defs>
     <g transform="translate(218.652332 314.26498)scale(0.1 -0.1)">
      <use xlink:href="#DejaVuSans-35"/>
     </g>
    </g>
   </g>
  </g>
  <g id="axis3d_2">
   <g id="line2d_8">
    <path d="M 378.851161 228.955251 
L 241.29471 297.926176 
" style="fill:none;stroke:#000000;stroke-linecap:square;stroke-width:0.8;"/>
   </g>
   <g id="text_8">
    <!-- x axis -->
    <g transform="translate(322.174944 299.538968)rotate(-26.629226)scale(0.1 -0.1)">
     <use xlink:href="#DejaVuSans-78"/>
     <use x="59.179688" xlink:href="#DejaVuSans-20"/>
     <use x="90.966797" xlink:href="#DejaVuSans-61"/>
     <use x="152.246094" xlink:href="#DejaVuSans-78"/>
     <use x="211.425781" xlink:href="#DejaVuSans-69"/>
     <use x="239.208984" xlink:href="#DejaVuSans-73"/>
    </g>
   </g>
   <g id="Line3DCollection_2">
    <path d="M 101.248511 106.346717 
L 109.686593 226.279118 
L 247.911261 294.608631 
" style="fill:none;stroke:#b0b0b0;stroke-width:0.8;"/>
    <path d="M 121.050219 98.458355 
L 128.239512 217.984984 
L 266.501948 285.287244 
" style="fill:none;stroke:#b0b0b0;stroke-width:0.8;"/>
    <path d="M 140.54568 90.691992 
L 146.522572 209.811491 
L 284.806158 276.109497 
" style="fill:none;stroke:#b0b0b0;stroke-width:0.8;"/>
    <path d="M 159.741942 83.04482 
L 164.541617 201.756027 
L 302.830461 267.072096 
" style="fill:none;stroke:#b0b0b0;stroke-width:0.8;"/>
    <path d="M 178.645842 75.514116 
L 182.302326 193.816053 
L 320.581229 258.171846 
" style="fill:none;stroke:#b0b0b0;stroke-width:0.8;"/>
    <path d="M 197.264008 68.097239 
L 199.810213 185.989104 
L 338.064642 249.405647 
" style="fill:none;stroke:#b0b0b0;stroke-width:0.8;"/>
    <path d="M 215.60287 60.791628 
L 217.07064 178.272782 
L 355.286695 240.770495 
" style="fill:none;stroke:#b0b0b0;stroke-width:0.8;"/>
    <path d="M 233.668665 53.594798 
L 234.088816 170.664759 
L 372.253204 232.263472 
" style="fill:none;stroke:#b0b0b0;stroke-width:0.8;"/>
   </g>
   <g id="xtick_7">
    <g id="line2d_9">
     <path d="M 246.73929 294.029283 
L 250.2586 295.769007 
" style="fill:none;stroke:#000000;stroke-linecap:square;stroke-width:0.8;"/>
    </g>
    <g id="text_9">
     <!-- −0.20 -->
     <defs>
      <path d="M 10.59375 35.5 
L 73.1875 35.5 
L 73.1875 27.203125 
L 10.59375 27.203125 
z
" id="DejaVuSans-2212"/>
      <path d="M 10.6875 12.40625 
L 21 12.40625 
L 21 0 
L 10.6875 0 
z
" id="DejaVuSans-2e"/>
     </defs>
     <g transform="translate(242.939706 315.494139)scale(0.1 -0.1)">
      <use xlink:href="#DejaVuSans-2212"/>
      <use x="83.789062" xlink:href="#DejaVuSans-30"/>
      <use x="147.412109" xlink:href="#DejaVuSans-2e"/>
      <use x="179.199219" xlink:href="#DejaVuSans-32"/>
      <use x="242.822266" xlink:href="#DejaVuSans-30"/>
     </g>
    </g>
   </g>
   <g id="xtick_8">
    <g id="line2d_10">
     <path d="M 265.330172 284.716856 
L 268.848874 286.429661 
" style="fill:none;stroke:#000000;stroke-linecap:square;stroke-width:0.8;"/>
    </g>
    <g id="text_10">
     <!-- −0.15 -->
     <g transform="translate(261.445238 306.072017)scale(0.1 -0.1)">
      <use xlink:href="#DejaVuSans-2212"/>
      <use x="83.789062" xlink:href="#DejaVuSans-30"/>
      <use x="147.412109" xlink:href="#DejaVuSans-2e"/>
      <use x="179.199219" xlink:href="#DejaVuSans-31"/>
      <use x="242.822266" xlink:href="#DejaVuSans-35"/>
     </g>
    </g>
   </g>
   <g id="xtick_9">
    <g id="line2d_11">
     <path d="M 283.634708 275.547863 
L 287.152403 277.23437 
" style="fill:none;stroke:#000000;stroke-linecap:square;stroke-width:0.8;"/>
    </g>
    <g id="text_11">
     <!-- −0.10 -->
     <g transform="translate(279.665677 296.79505)scale(0.1 -0.1)">
      <use xlink:href="#DejaVuSans-2212"/>
      <use x="83.789062" xlink:href="#DejaVuSans-30"/>
      <use x="147.412109" xlink:href="#DejaVuSans-2e"/>
      <use x="179.199219" xlink:href="#DejaVuSans-31"/>
      <use x="242.822266" xlink:href="#DejaVuSans-30"/>
     </g>
    </g>
   </g>
   <g id="xtick_10">
    <g id="line2d_12">
     <path d="M 301.659465 266.519015 
L 305.175772 268.179825 
" style="fill:none;stroke:#000000;stroke-linecap:square;stroke-width:0.8;"/>
    </g>
    <g id="text_12">
     <!-- −0.05 -->
     <g transform="translate(297.607561 287.65991)scale(0.1 -0.1)">
      <use xlink:href="#DejaVuSans-2212"/>
      <use x="83.789062" xlink:href="#DejaVuSans-30"/>
      <use x="147.412109" xlink:href="#DejaVuSans-2e"/>
      <use x="179.199219" xlink:href="#DejaVuSans-30"/>
      <use x="242.822266" xlink:href="#DejaVuSans-35"/>
     </g>
    </g>
   </g>
   <g id="xtick_11">
    <g id="line2d_13">
     <path d="M 319.410807 257.627124 
L 322.925364 259.262819 
" style="fill:none;stroke:#000000;stroke-linecap:square;stroke-width:0.8;"/>
    </g>
    <g id="text_13">
     <!-- 0.00 -->
     <g transform="translate(319.467074 278.663369)scale(0.1 -0.1)">
      <use xlink:href="#DejaVuSans-30"/>
      <use x="63.623047" xlink:href="#DejaVuSans-2e"/>
      <use x="95.410156" xlink:href="#DejaVuSans-30"/>
      <use x="159.033203" xlink:href="#DejaVuSans-30"/>
     </g>
    </g>
   </g>
   <g id="xtick_12">
    <g id="line2d_14">
     <path d="M 336.89491 248.869098 
L 340.40737 250.480243 
" style="fill:none;stroke:#000000;stroke-linecap:square;stroke-width:0.8;"/>
    </g>
    <g id="text_14">
     <!-- 0.05 -->
     <g transform="translate(336.870676 269.802297)scale(0.1 -0.1)">
      <use xlink:href="#DejaVuSans-30"/>
      <use x="63.623047" xlink:href="#DejaVuSans-2e"/>
      <use x="95.410156" xlink:href="#DejaVuSans-30"/>
      <use x="159.033203" xlink:href="#DejaVuSans-35"/>
     </g>
    </g>
   </g>
   <g id="xtick_13">
    <g id="line2d_15">
     <path d="M 354.117764 240.241935 
L 357.627795 241.82908 
" style="fill:none;stroke:#000000;stroke-linecap:square;stroke-width:0.8;"/>
    </g>
    <g id="text_15">
     <!-- 0.10 -->
     <g transform="translate(354.014175 261.073656)scale(0.1 -0.1)">
      <use xlink:href="#DejaVuSans-30"/>
      <use x="63.623047" xlink:href="#DejaVuSans-2e"/>
      <use x="95.410156" xlink:href="#DejaVuSans-31"/>
      <use x="159.033203" xlink:href="#DejaVuSans-30"/>
     </g>
    </g>
   </g>
   <g id="xtick_14">
    <g id="line2d_16">
     <path d="M 371.085179 231.742724 
L 374.592467 233.306401 
" style="fill:none;stroke:#000000;stroke-linecap:square;stroke-width:0.8;"/>
    </g>
    <g id="text_16">
     <!-- 0.15 -->
     <g transform="translate(370.90336 252.474499)scale(0.1 -0.1)">
      <use xlink:href="#DejaVuSans-30"/>
      <use x="63.623047" xlink:href="#DejaVuSans-2e"/>
      <use x="95.410156" xlink:href="#DejaVuSans-31"/>
      <use x="159.033203" xlink:href="#DejaVuSans-35"/>
     </g>
    </g>
   </g>
  </g>
  <g id="axis3d_3">
   <g id="line2d_17">
    <path d="M 378.851161 228.955251 
L 387.733496 108.893511 
" style="fill:none;stroke:#000000;stroke-linecap:square;stroke-width:0.8;"/>
   </g>
   <g id="text_17">
    <!-- y axis -->
    <defs>
     <path d="M 32.171875 -5.078125 
Q 28.375 -14.84375 24.75 -17.8125 
Q 21.140625 -20.796875 15.09375 -20.796875 
L 7.90625 -20.796875 
L 7.90625 -13.28125 
L 13.1875 -13.28125 
Q 16.890625 -13.28125 18.9375 -11.515625 
Q 21 -9.765625 23.484375 -3.21875 
L 25.09375 0.875 
L 2.984375 54.6875 
L 12.5 54.6875 
L 29.59375 11.921875 
L 46.6875 54.6875 
L 56.203125 54.6875 
z
" id="DejaVuSans-79"/>
    </defs>
    <g transform="translate(428.621639 185.486081)rotate(-85.768886)scale(0.1 -0.1)">
     <use xlink:href="#DejaVuSans-79"/>
     <use x="59.179688" xlink:href="#DejaVuSans-20"/>
     <use x="90.966797" xlink:href="#DejaVuSans-61"/>
     <use x="152.246094" xlink:href="#DejaVuSans-78"/>
     <use x="211.425781" xlink:href="#DejaVuSans-69"/>
     <use x="239.208984" xlink:href="#DejaVuSans-73"/>
    </g>
   </g>
   <g id="Line3DCollection_3">
    <path d="M 379.074143 225.941213 
L 240.710162 164.759657 
L 102.864349 226.214964 
" style="fill:none;stroke:#b0b0b0;stroke-width:0.8;"/>
    <path d="M 380.430002 207.61419 
L 240.707602 146.864565 
L 101.507831 207.886153 
" style="fill:none;stroke:#b0b0b0;stroke-width:0.8;"/>
    <path d="M 381.812751 188.9237 
L 240.704993 128.634117 
L 100.124404 189.19375 
" style="fill:none;stroke:#b0b0b0;stroke-width:0.8;"/>
    <path d="M 383.223197 169.858821 
L 240.702336 110.058795 
L 98.713258 170.126827 
" style="fill:none;stroke:#b0b0b0;stroke-width:0.8;"/>
    <path d="M 384.662182 150.408192 
L 240.699628 91.12872 
L 97.273553 150.674015 
" style="fill:none;stroke:#b0b0b0;stroke-width:0.8;"/>
    <path d="M 386.13058 130.559985 
L 240.696867 71.833633 
L 95.804411 130.82348 
" style="fill:none;stroke:#b0b0b0;stroke-width:0.8;"/>
   </g>
   <g id="xtick_15">
    <g id="line2d_18">
     <path d="M 377.904511 225.424027 
L 381.416618 226.977005 
" style="fill:none;stroke:#000000;stroke-linecap:square;stroke-width:0.8;"/>
    </g>
    <g id="text_18">
     <!-- −0.15 -->
     <g transform="translate(383.317662 233.520258)scale(0.1 -0.1)">
      <use xlink:href="#DejaVuSans-2212"/>
      <use x="83.789062" xlink:href="#DejaVuSans-30"/>
      <use x="147.412109" xlink:href="#DejaVuSans-2e"/>
      <use x="179.199219" xlink:href="#DejaVuSans-31"/>
      <use x="242.822266" xlink:href="#DejaVuSans-35"/>
     </g>
    </g>
   </g>
   <g id="xtick_16">
    <g id="line2d_19">
     <path d="M 379.248266 207.100385 
L 382.796752 208.643224 
" style="fill:none;stroke:#000000;stroke-linecap:square;stroke-width:0.8;"/>
    </g>
    <g id="text_19">
     <!-- −0.10 -->
     <g transform="translate(384.86561 215.193362)scale(0.1 -0.1)">
      <use xlink:href="#DejaVuSans-2212"/>
      <use x="83.789062" xlink:href="#DejaVuSans-30"/>
      <use x="147.412109" xlink:href="#DejaVuSans-2e"/>
      <use x="179.199219" xlink:href="#DejaVuSans-31"/>
      <use x="242.822266" xlink:href="#DejaVuSans-30"/>
     </g>
    </g>
   </g>
   <g id="xtick_17">
    <g id="line2d_20">
     <path d="M 380.618657 188.413512 
L 384.204282 189.945503 
" style="fill:none;stroke:#000000;stroke-linecap:square;stroke-width:0.8;"/>
    </g>
    <g id="text_20">
     <!-- −0.05 -->
     <g transform="translate(386.444257 196.503007)scale(0.1 -0.1)">
      <use xlink:href="#DejaVuSans-2212"/>
      <use x="83.789062" xlink:href="#DejaVuSans-30"/>
      <use x="147.412109" xlink:href="#DejaVuSans-2e"/>
      <use x="179.199219" xlink:href="#DejaVuSans-30"/>
      <use x="242.822266" xlink:href="#DejaVuSans-35"/>
     </g>
    </g>
   </g>
   <g id="xtick_18">
    <g id="line2d_21">
     <path d="M 382.016486 169.3525 
L 385.640033 170.872896 
" style="fill:none;stroke:#000000;stroke-linecap:square;stroke-width:0.8;"/>
    </g>
    <g id="text_21">
     <!-- 0.00 -->
     <g transform="translate(392.244369 177.438274)scale(0.1 -0.1)">
      <use xlink:href="#DejaVuSans-30"/>
      <use x="63.623047" xlink:href="#DejaVuSans-2e"/>
      <use x="95.410156" xlink:href="#DejaVuSans-30"/>
      <use x="159.033203" xlink:href="#DejaVuSans-30"/>
     </g>
    </g>
   </g>
   <g id="xtick_19">
    <g id="line2d_22">
     <path d="M 383.442584 149.905998 
L 387.104862 151.414015 
" style="fill:none;stroke:#000000;stroke-linecap:square;stroke-width:0.8;"/>
    </g>
    <g id="text_22">
     <!-- 0.05 -->
     <g transform="translate(393.887218 157.9878)scale(0.1 -0.1)">
      <use xlink:href="#DejaVuSans-30"/>
      <use x="63.623047" xlink:href="#DejaVuSans-2e"/>
      <use x="95.410156" xlink:href="#DejaVuSans-30"/>
      <use x="159.033203" xlink:href="#DejaVuSans-35"/>
     </g>
    </g>
   </g>
   <g id="xtick_20">
    <g id="line2d_23">
     <path d="M 384.897818 130.062194 
L 388.599661 131.557004 
" style="fill:none;stroke:#000000;stroke-linecap:square;stroke-width:0.8;"/>
    </g>
    <g id="text_23">
     <!-- 0.10 -->
     <g transform="translate(395.563647 138.139757)scale(0.1 -0.1)">
      <use xlink:href="#DejaVuSans-30"/>
      <use x="63.623047" xlink:href="#DejaVuSans-2e"/>
      <use x="95.410156" xlink:href="#DejaVuSans-31"/>
      <use x="159.033203" xlink:href="#DejaVuSans-30"/>
     </g>
    </g>
   </g>
  </g>
  <g id="axes_1">
   <g id="line2d_24">
    <path clip-path="url(#p39b9926a63)" d="M 189.151233 139.388647 
L 196.335896 142.44041 
L 196.533349 142.53262 
L 196.850627 142.873616 
L 197.494228 143.287191 
L 197.822335 143.189156 
L 198.248224 142.952441 
L 198.790241 143.462152 
L 199.422529 144.152209 
L 199.820135 144.302653 
L 200.10111 144.269072 
L 200.191955 144.073933 
L 200.151751 143.558991 
L 200.241348 143.287811 
L 200.602599 143.207163 
L 200.856684 143.310112 
L 201.111243 143.630737 
L 201.309803 144.206458 
L 201.432062 145.70682 
L 201.390328 146.415158 
L 201.474733 145.805447 
L 201.662276 145.400932 
L 201.967723 145.165804 
L 202.322122 145.179563 
L 203.026679 145.490157 
L 203.288998 145.419458 
L 203.397906 145.096371 
L 203.301488 144.007031 
L 203.087376 143.314093 
L 202.874477 143.554605 
L 202.48712 144.754415 
L 202.472345 145.972346 
L 202.665971 146.409629 
L 203.001831 146.646897 
L 203.839409 146.623673 
L 204.156589 146.61343 
L 204.769666 147.016729 
L 205.084178 147.010893 
L 205.477999 146.846242 
L 205.928056 146.481659 
L 206.329841 145.936415 
L 206.58984 145.264267 
L 207.058224 143.061778 
L 207.349124 143.346162 
L 207.709663 144.150647 
L 208.005389 145.454707 
L 208.069465 147.070903 
L 207.863868 148.599882 
L 207.512558 149.627697 
L 207.243355 149.878403 
L 207.191126 149.37049 
L 207.500294 147.538656 
L 207.639377 147.094052 
L 207.369772 147.593352 
L 207.048005 147.742231 
L 206.727738 147.251821 
L 206.102449 144.586071 
L 205.779801 143.283314 
L 205.293534 142.940875 
L 204.6204 144.052408 
L 203.952185 146.569829 
L 203.546334 150.024936 
L 203.575955 153.674789 
L 204.170121 156.495879 
L 205.34227 157.748091 
L 206.928698 157.354216 
L 208.578125 155.899784 
L 209.891239 154.196865 
L 210.503251 152.695484 
L 210.384657 151.250751 
L 209.917366 149.309755 
L 209.524452 146.498683 
L 209.45674 142.972651 
L 209.85863 139.485883 
L 210.687568 136.914027 
L 211.674828 135.906593 
L 212.599049 136.669916 
L 213.350679 138.901767 
L 213.75272 142.053729 
L 213.803439 145.460476 
L 213.973769 148.408276 
L 214.729339 150.478224 
L 216.145334 151.712739 
L 217.842986 152.383045 
L 219.216873 152.722281 
L 219.521695 152.621534 
L 216.328718 150.061665 
L 213.75021 147.618204 
L 211.266785 145.057532 
L 209.440806 143.407559 
L 208.570583 143.399439 
L 208.548929 145.042667 
L 209.394829 151.043365 
L 209.856735 155.304971 
L 211.392077 154.822824 
L 211.095473 154.732684 
L 208.727487 154.663035 
L 207.739508 154.202776 
L 207.684425 152.936034 
L 208.771916 150.709714 
L 210.770409 147.78674 
L 213.122892 144.806883 
L 215.209012 142.55459 
L 216.856129 141.452337 
L 218.243421 141.386792 
L 219.398598 141.947316 
L 220.257342 142.610338 
L 220.841302 142.877707 
L 221.015024 142.699979 
L 220.568779 142.512054 
L 219.375664 143.161178 
L 217.503186 145.179559 
L 209.895753 155.309232 
L 208.170183 156.951096 
L 207.88062 156.371329 
L 209.281143 154.015044 
L 212.061031 151.304047 
L 215.325458 149.951989 
L 217.605873 150.925911 
L 217.845424 153.991155 
L 216.156671 157.995692 
L 213.452865 161.398429 
L 210.819228 162.701771 
L 209.215906 160.963876 
L 209.118621 156.393649 
L 210.3448 150.616669 
L 212.270765 145.511975 
L 214.178527 142.247388 
L 215.611285 141.188903 
L 216.53272 142.02681 
L 217.457686 144.021827 
L 218.918578 146.442933 
L 221.017817 148.884673 
L 225.239371 153.190751 
L 226.329788 154.851138 
L 226.581469 156.020182 
L 226.193546 156.387316 
L 225.549926 155.798515 
L 225.081057 154.526297 
L 224.7697 152.219303 
L 224.522677 151.499209 
L 223.937178 150.535577 
L 222.819924 149.002062 
L 221.263038 147.127653 
L 219.593792 145.474183 
L 218.065602 144.567226 
L 216.771343 144.609687 
L 215.742687 145.55985 
L 215.062037 147.294171 
L 214.775513 149.606953 
L 214.594062 156.206177 
L 214.692217 157.732666 
L 215.060396 158.928881 
L 215.673705 159.8031 
L 216.405534 160.494832 
L 217.994796 162.601816 
L 219.120477 163.542549 
L 220.681325 163.54323 
L 222.636433 162.164429 
L 224.771906 158.965647 
L 226.742606 154.010778 
L 228.124565 148.194323 
L 228.529625 143.066734 
L 227.850203 139.958094 
L 226.32706 139.33285 
L 224.425245 140.692346 
L 222.653176 143.07097 
L 221.434889 145.743576 
L 220.937552 148.442284 
L 220.94966 154.520852 
L 221.088335 157.756873 
L 221.425489 160.533345 
L 221.972058 162.295765 
L 222.636726 162.100656 
L 223.278543 159.49247 
L 223.731026 155.312515 
L 223.878411 151.129481 
L 223.700214 148.299465 
L 223.209422 147.1895 
L 221.408102 147.096618 
L 220.250066 146.235754 
L 219.314924 144.810538 
L 219.026289 144.159655 
L 219.619802 145.76488 
L 225.548176 163.79684 
L 227.552104 168.398846 
L 228.930181 169.870435 
L 229.924228 168.192615 
L 230.934693 164.133892 
L 231.912626 158.858131 
L 232.235466 153.701792 
L 231.15311 149.914315 
L 228.452551 148.249608 
L 224.751244 148.591701 
L 221.352186 150.065623 
L 219.276677 151.869675 
L 218.713239 153.726963 
L 219.288142 155.721428 
L 220.436524 157.863708 
L 221.689329 159.788275 
L 223.642493 162.090329 
L 224.323561 162.74127 
L 224.954281 163.145438 
L 225.60255 162.776369 
L 226.184815 161.102384 
L 226.467133 158.053202 
L 226.338289 154.235788 
L 225.905319 150.707962 
L 225.276775 148.661238 
L 224.517853 148.642357 
L 223.691612 150.284461 
L 222.845787 152.832071 
L 222.087698 155.537748 
L 221.88134 157.601341 
L 222.659776 158.590484 
L 224.366315 158.93907 
L 226.380947 159.473061 
L 227.823424 160.816129 
L 228.101232 163.004323 
L 227.274084 165.443109 
L 226.066106 166.765555 
L 225.217801 166.070458 
L 225.037789 163.686928 
L 225.513373 160.799228 
L 226.469907 158.599463 
L 227.652718 157.66027 
L 228.811745 157.890177 
L 230.801243 159.873863 
L 232.190687 160.081235 
L 234.088541 158.788507 
L 236.243051 155.753241 
L 238.132339 151.216907 
L 239.172064 146.275126 
L 238.97811 142.625154 
L 237.640025 141.45092 
L 235.643627 142.753189 
L 233.532545 145.691685 
L 231.754983 149.376576 
L 230.658611 153.219083 
L 230.452147 156.617954 
L 231.147145 159.026875 
L 232.717674 160.262234 
L 234.860217 160.593712 
L 236.876313 160.555636 
L 238.117903 160.406299 
L 238.371485 160.05474 
L 237.287607 157.703325 
L 236.733298 155.990942 
L 236.194829 154.936602 
L 235.360633 155.410402 
L 233.902466 157.640051 
L 228.676305 166.540252 
L 225.389239 172.875315 
L 222.719666 179.386185 
L 221.497451 184.89963 
L 221.985648 188.707699 
L 224.00648 190.603891 
L 226.989757 190.755283 
L 230.095484 189.480083 
L 232.462079 187.019363 
L 233.531214 183.626942 
L 233.009078 179.551572 
L 231.108367 175.057819 
L 228.504389 170.480021 
L 225.669606 166.52922 
L 222.763964 164.027032 
L 220.062924 163.510379 
L 217.898106 164.747411 
L 216.463939 166.769826 
L 215.92173 168.521608 
L 216.380325 169.359818 
L 217.905242 169.142953 
L 225.212702 166.22009 
L 224.377669 166.796353 
L 219.860137 169.068144 
L 217.335641 170.191801 
L 215.544899 170.758399 
L 215.052772 170.145454 
L 216.042027 168.047361 
L 218.500323 165.108673 
L 222.178989 162.506689 
L 226.660121 161.289199 
L 231.526239 161.772989 
L 236.387549 163.494261 
L 244.572557 167.653654 
L 247.962543 168.689526 
L 251.268403 168.618753 
L 254.517467 167.839158 
L 260.552585 166.009637 
L 260.802633 165.288711 
L 260.335993 162.593268 
L 260.002 161.275287 
L 259.57714 160.555679 
L 258.838688 160.563544 
L 257.356651 161.09158 
L 254.65845 161.828001 
L 250.633074 162.354155 
L 245.801466 161.609987 
L 240.942722 158.824327 
L 236.670902 154.33814 
L 230.793224 146.096434 
L 228.727114 145.167664 
L 226.669447 146.816149 
L 224.551024 150.251002 
L 222.566771 154.712323 
L 220.969679 159.843247 
L 220.070258 165.636707 
L 220.162819 171.995428 
L 221.630818 178.466095 
L 224.451289 184.272174 
L 228.045582 188.506407 
L 231.944565 190.045359 
L 235.975624 188.357734 
L 240.114026 183.978599 
L 244.33863 178.381044 
L 248.517728 173.340384 
L 252.054979 169.912385 
L 254.186095 168.084701 
L 254.215257 167.317887 
L 252.15194 167.107219 
L 248.84236 167.259327 
L 243.333689 167.893276 
L 242.503013 168.109182 
L 242.772187 168.479925 
L 243.733012 169.306756 
L 244.826527 170.771395 
L 245.436421 172.832083 
L 245.461575 175.207594 
L 245.217288 177.400347 
L 244.9302 178.557328 
L 244.542538 177.872952 
L 243.824599 175.051027 
L 242.601291 170.748927 
L 240.912326 166.306577 
L 238.968816 163.206515 
L 236.994364 162.132879 
L 235.144172 162.629316 
L 232.744438 164.108966 
L 232.490287 163.691635 
L 232.886392 162.665257 
L 234.094318 161.752846 
L 236.300389 161.190571 
L 239.50982 160.53955 
L 243.682981 159.07864 
L 248.586002 156.560079 
L 258.81964 150.498151 
L 263.752277 148.075284 
L 268.45417 146.540691 
L 272.651151 146.045371 
L 275.722014 146.60095 
L 277.260062 148.245037 
L 277.420077 151.045437 
L 276.760565 154.562452 
L 275.989376 157.894219 
L 275.884399 159.908619 
L 276.816365 159.869648 
L 278.53829 157.652089 
L 280.441246 153.72477 
L 281.873959 149.053707 
L 282.17649 145.031977 
L 280.974344 142.68237 
L 278.196603 142.262591 
L 273.884013 143.744448 
L 268.355369 146.911332 
L 262.655496 151.000831 
L 258.03074 154.995276 
L 255.313259 158.144908 
L 254.628427 160.053478 
L 255.503955 160.656168 
L 257.445458 160.180551 
L 260.015203 158.978719 
L 262.769 157.031031 
L 265.308753 154.125303 
L 267.398422 150.124454 
L 268.987815 145.093051 
L 270.130946 139.458115 
L 270.570486 134.335125 
L 270.062101 130.770157 
L 268.635118 129.134193 
L 266.525044 129.02305 
L 261.789258 130.00807 
L 260.146758 130.027098 
L 259.66351 129.764797 
L 260.685012 129.500914 
L 263.220139 129.430258 
L 267.051034 129.641879 
L 271.715114 130.162438 
L 276.564742 131.026236 
L 281.051411 132.186919 
L 288.422746 134.531509 
L 291.850492 135.138633 
L 295.320454 134.875577 
L 298.656004 133.464152 
L 301.573424 130.886351 
L 303.85852 127.26856 
L 305.456581 122.986911 
L 306.273739 118.920442 
L 306.362703 115.893187 
L 305.972646 114.263585 
L 305.117427 114.259834 
L 303.631568 115.923179 
L 301.623472 118.885852 
L 297.130464 126.211014 
L 294.995418 129.267105 
L 293.232267 130.925781 
L 292.147649 130.837541 
L 291.809724 129.336957 
L 291.832203 127.244725 
L 291.559209 125.467415 
L 290.399075 124.70059 
L 288.136892 125.397282 
L 284.919089 127.577789 
L 276.217581 134.727678 
L 271.825866 138.581478 
L 268.27309 142.126049 
L 265.767014 145.341496 
L 264.584052 148.453873 
L 264.771426 151.711022 
L 265.943939 155.237245 
L 267.83081 159.077116 
L 270.38546 163.23855 
L 273.581949 167.747644 
L 277.270816 172.276096 
L 281.255665 175.793631 
L 285.13987 177.354611 
L 288.389327 176.7252 
L 290.537535 174.135409 
L 291.488523 170.193585 
L 291.44678 165.740211 
L 290.656802 161.407797 
L 289.192675 157.507349 
L 286.855623 154.62206 
L 283.469379 153.41591 
L 279.056917 154.373089 
L 273.915824 157.267635 
L 268.514501 161.197832 
L 263.252354 165.420748 
L 258.320737 169.669134 
L 243.995491 182.86899 
L 232.561882 192.440306 
L 226.427681 197.955008 
L 220.24464 204.324517 
L 213.932428 211.614268 
L 195.890866 233.560761 
L 191.941709 238.830312 
L 189.785264 242.754385 
L 189.746315 245.214972 
L 192.226423 245.825599 
L 197.836918 243.848477 
L 206.809465 238.940071 
L 234.05405 222.452894 
L 249.858156 213.450158 
L 265.066204 205.439235 
L 289.938175 193.06139 
L 298.088916 188.06947 
L 303.506165 182.793818 
L 306.882668 176.606846 
L 308.964512 169.545135 
L 310.04963 162.22735 
L 310.295791 155.427764 
L 310.029251 149.844044 
L 309.561872 145.666491 
L 308.993351 142.535277 
L 308.329203 140.056349 
L 307.11772 136.602607 
L 307.077261 135.856899 
L 307.625423 135.738498 
L 310.069797 136.077736 
L 310.879302 136.990134 
L 310.43513 139.474978 
L 308.548296 143.714209 
L 305.53938 149.227074 
L 302.005447 155.095967 
L 298.441445 160.085024 
L 295.023277 163.567637 
L 291.605122 166.03717 
L 284.27475 170.349753 
L 277.431903 174.129509 
L 271.673913 176.989509 
L 269.082344 178.246918 
L 266.743698 179.62821 
L 264.625464 181.369543 
L 262.720549 183.54946 
L 260.963115 186.120527 
L 257.512116 191.90856 
L 256.125605 194.520086 
L 255.474192 196.583159 
L 255.963697 198.045225 
L 257.893961 198.937787 
L 261.158116 199.163798 
L 265.132337 198.67221 
L 272.857208 197.15351 
L 273.302671 197.195657 
L 273.2413 197.428126 
L 272.776682 197.823869 
L 271.807945 198.285915 
L 270.301219 198.573665 
L 268.446823 198.50942 
L 265.013227 197.915649 
L 263.835295 198.246429 
L 263.015212 199.480659 
L 261.367441 204.310349 
L 259.655743 207.286417 
L 256.968099 210.243902 
L 253.562922 212.534822 
L 250.001386 213.692529 
L 246.878504 213.845828 
L 244.666548 213.343434 
L 243.554812 212.4467 
L 243.455424 211.162464 
L 244.072748 209.598104 
L 245.077414 208.293332 
L 246.173267 207.876441 
L 247.118094 208.713063 
L 247.765361 211.074806 
L 248.085958 214.726708 
L 248.09904 218.577708 
L 247.825729 221.64526 
L 247.297033 223.752704 
L 245.866753 226.834908 
L 245.546428 228.810271 
L 245.856379 231.43974 
L 246.628212 234.642583 
L 248.410634 240.728679 
L 249.266169 242.55348 
L 250.160989 243.350605 
L 250.920617 243.284522 
L 251.331677 242.354247 
L 251.309922 240.415699 
L 250.779101 237.295123 
L 249.695755 233.105705 
L 248.044592 228.313301 
L 245.931475 223.587097 
L 243.60683 219.531744 
L 241.36409 216.491218 
L 239.315229 214.377732 
L 237.183393 212.758837 
L 234.526476 211.21696 
L 231.034274 209.589328 
L 226.711775 207.945545 
L 217.608806 205.116047 
L 214.256948 204.147073 
L 211.889492 203.686805 
L 209.277748 203.65286 
L 210.072752 203.704125 
L 211.739606 204.157462 
L 214.160955 205.158094 
L 223.412405 209.535644 
L 226.439026 210.198338 
L 229.589319 209.839058 
L 233.013451 208.719986 
L 236.683151 207.321435 
L 240.38545 206.029722 
L 248.088593 203.865745 
L 248.608512 203.298141 
L 247.85379 202.490212 
L 245.984961 201.327876 
L 243.395885 199.937447 
L 240.571874 198.722024 
L 237.888848 198.065219 
L 235.551465 198.022997 
L 233.71059 198.165763 
L 232.408095 198.000134 
L 231.558298 197.344564 
L 231.064431 196.229439 
L 230.856721 194.778831 
L 230.942938 193.205573 
L 231.587563 190.205137 
L 231.383959 188.605806 
L 230.106289 186.790134 
L 227.465209 184.992324 
L 223.699473 183.657259 
L 219.523264 183.310827 
L 215.725027 184.176128 
L 212.880684 185.973365 
L 211.3819 187.943031 
L 211.28757 189.325184 
L 212.363463 189.85333 
L 214.201435 189.744156 
L 216.501091 189.322781 
L 219.500468 188.475832 
L 223.671506 186.777605 
L 229.172976 183.859783 
L 235.650257 179.813788 
L 254.913549 166.751126 
L 260.536609 163.415761 
L 266.445632 160.389459 
L 273.199884 157.354998 
L 280.634693 154.404787 
L 287.888542 152.029592 
L 294.269488 150.686738 
L 299.659797 150.391064 
L 304.218345 150.712955 
L 311.052547 151.597112 
L 313.070308 151.983969 
L 314.141035 152.459449 
L 314.580217 153.199619 
L 314.744183 154.382956 
L 314.749011 156.217389 
L 314.386652 158.997499 
L 313.43286 162.869772 
L 312.126366 167.563996 
L 310.985096 172.33898 
L 310.472344 176.072112 
L 310.854443 177.783685 
L 312.097446 177.067067 
L 313.739911 173.922402 
L 315.143237 169.079926 
L 315.76145 164.20976 
L 315.446939 160.702049 
L 314.459297 158.952142 
L 313.095619 159.064864 
L 311.496443 160.949236 
L 304.518945 172.450902 
L 302.042302 176.352952 
L 300.152631 179.643223 
L 298.056657 184.034273 
L 296.512529 188.057093 
L 295.611866 189.595721 
L 294.44512 191.172104 
L 292.967432 192.540371 
L 291.115023 193.543476 
L 282.599926 196.241441 
L 278.549215 197.776308 
L 274.279163 199.055877 
L 270.300808 199.36365 
L 267.078304 198.503395 
L 264.820866 196.849976 
L 263.572931 194.839395 
L 263.127527 192.84457 
L 263.012452 191.249694 
L 262.636818 190.425312 
L 261.558988 190.509737 
L 259.639037 191.218042 
L 257.158548 191.92598 
L 254.752757 191.896378 
L 252.960888 190.812339 
L 252.015982 188.939626 
L 252.086644 186.812107 
L 253.157413 184.869015 
L 254.966338 183.277271 
L 257.339987 181.939644 
L 268.652429 177.0051 
L 273.611296 174.32058 
L 278.449862 170.961832 
L 282.834429 167.122914 
L 286.529986 162.915891 
L 289.429348 158.271255 
L 291.433662 152.820793 
L 292.508349 146.505541 
L 292.705024 139.939427 
L 292.237405 134.044983 
L 291.489205 129.550269 
L 290.87128 126.876491 
L 291.268979 128.631759 
L 291.845913 131.797052 
L 292.293386 135.704642 
L 292.603674 139.900229 
L 293.056317 144.079035 
L 294.112182 147.897254 
L 296.118119 151.049033 
L 299.056849 153.476867 
L 302.402834 155.550785 
L 305.440684 157.806127 
L 307.607808 160.549388 
L 308.800481 163.594035 
L 309.774763 168.043257 
L 309.956613 166.653802 
L 310.090743 164.151415 
L 310.022661 161.174356 
L 309.548631 158.400437 
L 308.536182 156.412973 
L 306.987491 155.816599 
L 305.090855 156.827198 
L 303.204086 159.054974 
L 301.679821 161.892654 
L 300.69699 164.778206 
L 299.409119 170.845292 
L 298.868996 172.36963 
L 293.34227 184.7496 
L 293.283482 185.723495 
L 293.837739 186.143627 
L 298.772706 186.882471 
L 300.448938 186.926451 
L 301.607048 186.102207 
L 302.36058 183.772065 
L 304.351555 171.114277 
L 303.465133 172.976817 
L 301.189532 177.353264 
L 297.610408 183.38151 
L 293.356175 190.287915 
L 289.399797 197.51547 
L 286.734316 204.38264 
L 285.818854 210.179727 
L 286.489266 214.1907 
L 288.147169 216.086478 
L 290.056516 216.089629 
L 291.576787 214.88588 
L 292.310363 213.388713 
L 291.966261 212.548879 
L 290.561491 212.839276 
L 285.902636 215.393924 
L 283.093114 216.105933 
L 280.303646 215.6741 
L 277.831589 214.23014 
L 274.269005 211.268691 
L 273.23374 210.897729 
L 272.757746 211.335602 
L 272.769171 214.543503 
L 272.945384 215.227755 
L 273.643126 215.298809 
L 274.953178 214.727948 
L 276.869232 213.424138 
L 279.256914 211.37449 
L 281.813105 208.794916 
L 284.079218 206.160974 
L 286.92579 202.496026 
L 288.090679 201.760045 
L 289.567427 201.578058 
L 291.480708 201.60308 
L 293.727072 201.434524 
L 296.01273 200.764028 
L 298.056209 199.492435 
L 299.681916 197.672167 
L 300.62712 195.484858 
L 300.587115 193.247524 
L 299.449634 191.522115 
L 297.426321 190.776765 
L 294.887403 191.145375 
L 292.328808 192.339688 
L 290.271151 193.864093 
L 289.015573 195.534958 
L 288.617137 197.283516 
L 289.292214 198.387243 
L 291.061408 197.952022 
L 293.519225 195.474935 
L 296.194971 190.945964 
L 298.743531 184.959739 
L 300.752617 178.849527 
L 301.816029 174.061891 
L 301.625813 171.609811 
L 300.298005 171.465506 
L 296.421552 173.736619 
L 294.917914 173.635479 
L 294.516925 171.127415 
L 295.546209 165.899719 
L 297.706125 158.924432 
L 300.292211 151.994951 
L 302.611093 146.679736 
L 304.231654 143.783661 
L 305.099167 143.268577 
L 305.488637 144.458094 
L 305.887397 146.343106 
L 306.789193 147.928842 
L 308.667749 148.481015 
L 311.638236 147.807465 
L 318.837111 144.875615 
L 321.467367 144.309149 
L 322.576786 145.339767 
L 322.173026 148.207601 
L 320.992271 152.620925 
L 320.162644 157.81185 
L 320.703616 162.634893 
L 323.242683 165.615889 
L 327.736051 165.985743 
L 333.522343 164.371172 
L 339.374878 162.228227 
L 343.853151 161.007846 
L 345.996428 161.367294 
L 345.760563 162.96759 
L 343.79193 164.540123 
L 341.114676 164.549956 
L 338.850479 161.758089 
L 337.678449 155.843682 
L 337.600033 147.751736 
L 337.891592 139.93183 
L 337.470361 134.969676 
L 335.244612 134.626139 
L 330.904639 139.533336 
L 325.142094 148.895388 
L 319.406153 160.641606 
L 315.178651 172.322173 
L 313.628037 181.846512 
L 314.826669 188.188433 
L 317.772353 191.493068 
L 321.332357 192.379544 
L 324.541272 191.742654 
L 326.297232 190.718501 
L 326.001121 190.259575 
L 323.944627 190.827163 
L 321.035739 192.201734 
L 318.280211 193.863182 
L 316.430275 195.575694 
L 315.449382 197.55637 
L 314.563651 200.252512 
L 313.143502 204.049616 
L 311.196123 208.869668 
L 309.406918 213.992406 
L 308.618439 218.569318 
L 309.525595 222.012718 
L 312.739181 223.667476 
L 312.739181 223.667476 
" style="fill:none;stroke:#1f77b4;stroke-linecap:square;stroke-width:1.5;"/>
   </g>
   <g id="line2d_25">
    <path clip-path="url(#p39b9926a63)" d="M 189.093632 139.317001 
L 313.581632 194.225314 
L 313.581632 194.225314 
" style="fill:none;stroke:#ff7f0e;stroke-linecap:square;stroke-width:1.5;"/>
   </g>
  </g>
 </g>
 <defs>
  <clipPath id="p39b9926a63">
   <rect height="266.112" width="357.12" x="57.6" y="41.472"/>
  </clipPath>
 </defs>
</svg>
